<?xml version="1.0" encoding="UTF-8" standalone="no"?>
<!DOCTYPE svg PUBLIC "-//W3C//DTD SVG 1.1//EN" "http://www.w3.org/Graphics/SVG/1.1/DTD/svg11.dtd">
<svg width="100%" height="100%" viewBox="0 0 65 65" version="1.1" xmlns="http://www.w3.org/2000/svg" xmlns:xlink="http://www.w3.org/1999/xlink" xml:space="preserve" xmlns:serif="http://www.serif.com/" style="fill-rule:evenodd;clip-rule:evenodd;stroke-linejoin:round;stroke-miterlimit:2;">
    <g transform="matrix(1,0,0,1,-0.38,2.5)">
        <path d="M63,14.87C62.28,12.17 60.15,10.04 57.44,9.31C52.54,8 32.88,8 32.88,8C32.88,8 13.23,8 8.32,9.31C5.62,10.03 3.49,12.16 2.76,14.87C1.45,19.77 1.45,30 1.45,30C1.45,30 1.45,40.23 2.76,45.13C3.48,47.83 5.61,49.96 8.32,50.69C13.23,52 32.88,52 32.88,52C32.88,52 52.54,52 57.44,50.69C60.14,49.97 62.27,47.84 63,45.13C64.31,40.23 64.31,30 64.31,30C64.31,30 64.31,19.77 63,14.87Z" style="fill:rgb(255,0,0);fill-rule:nonzero;"/>
    </g>
    <g transform="matrix(1,0,0,1,-0.38,2.5)">
        <path d="M26.6,39.43L42.93,30L26.6,20.57L26.6,39.43Z" style="fill:white;fill-rule:nonzero;"/>
    </g>
</svg>
